<svg xmlns="http://www.w3.org/2000/svg" width="103.758" height="47.883" viewBox="0 0 103.758 47.883">
  <g id="Group_224" data-name="Group 224" transform="translate(0)">
    <g id="Group_164" data-name="Group 164" transform="translate(30.119 37.994)">
      <path id="Path_164" data-name="Path 164" d="M.994,1.377c0,.061-.023.1-.072.1A4,4,0,0,0,.331,1.6a3.15,3.15,0,0,0-.526.184.4.4,0,0,1-.143.048c-.049,0-.07-.022-.07-.068l.035-.477A1.59,1.59,0,0,1-1.585,1.8a1.746,1.746,0,0,1-1.323-.586,1.991,1.991,0,0,1-.542-1.4,1.989,1.989,0,0,1,.6-1.5,2.124,2.124,0,0,1,1.52-.577,1.606,1.606,0,0,1,.958.316V-3.422a.837.837,0,0,0-.089-.465.645.645,0,0,0-.413-.146c-.049-.006-.072-.044-.072-.109s.023-.115.072-.115A4.193,4.193,0,0,0-.146-4.49a1.488,1.488,0,0,0,.42-.243.127.127,0,0,1,.094-.044c.084,0,.124.023.124.072C.445-4.065.42-3.556.42-3.175V.705a.658.658,0,0,0,.093.41.7.7,0,0,0,.41.147c.049,0,.072.037.072.115M-.373.9V-1.354a.561.561,0,0,0-.273-.433.963.963,0,0,0-.589-.2c-.872,0-1.311.6-1.311,1.806A2.084,2.084,0,0,0-2.23,1a.953.953,0,0,0,.827.471,1.133,1.133,0,0,0,.528-.126A2,2,0,0,0-.373.9" transform="translate(3.45 4.777)"/>
    </g>
    <g id="Group_165" data-name="Group 165" transform="translate(34.936 38.531)">
      <path id="Path_165" data-name="Path 165" d="M.343.1A.443.443,0,0,1,.205.425.436.436,0,0,1-.122.559.461.461,0,0,1-.456.425.447.447,0,0,1-.587.1.444.444,0,0,1-.456-.224.464.464,0,0,1-.122-.357a.455.455,0,0,1,.327.133A.44.44,0,0,1,.343.1M.972,5.427c0,.082-.026.122-.072.122a4.421,4.421,0,0,1-.47-.028C.214,5.5.032,5.5-.113,5.5s-.331.009-.537.026a4.381,4.381,0,0,1-.469.028c-.045,0-.071-.04-.071-.122s.026-.112.071-.119a.785.785,0,0,0,.488-.18.927.927,0,0,0,.112-.567V2.934A.786.786,0,0,0-.61,2.472a.6.6,0,0,0-.4-.147c-.049,0-.075-.037-.075-.115s.026-.1.075-.1a5.2,5.2,0,0,0,.77-.252,1.286,1.286,0,0,0,.376-.224.127.127,0,0,1,.1-.052c.082,0,.122.023.122.068C.315,2.306.289,2.816.289,3.18V4.561A1,1,0,0,0,.4,5.128a.836.836,0,0,0,.5.18c.046.006.072.044.072.119" transform="translate(1.19 0.357)"/>
    </g>
    <g id="Group_166" data-name="Group 166" transform="translate(39.898 38.312)">
      <path id="Path_166" data-name="Path 166" d="M1.177,1.008A13.528,13.528,0,0,0,.843,2.627Q-.875,2.575-1.6,2.575t-2.413.052c-.049,0-.071-.04-.071-.12s.022-.116.071-.121a1.684,1.684,0,0,0,.733-.2.62.62,0,0,0,.2-.545V-2.5a.831.831,0,0,0-.084-.433.5.5,0,0,0-.273-.2,2.46,2.46,0,0,0-.577-.121c-.049,0-.071-.04-.071-.122s.022-.124.071-.124c.2,0,.439.008.719.028s.491.026.671.026.4-.009.669-.026.511-.028.712-.028c.049,0,.072.043.072.124s-.023.122-.072.122a2.448,2.448,0,0,0-.575.121.489.489,0,0,0-.272.192.882.882,0,0,0-.077.437V1.774a.459.459,0,0,0,.519.52h.89a1.505,1.505,0,0,0,.933-.287A2.955,2.955,0,0,0,.929.93C.941.9.97.893,1.013.893A.166.166,0,0,1,1.122.93a.093.093,0,0,1,.054.077" transform="translate(4.083 3.497)"/>
    </g>
    <g id="Group_167" data-name="Group 167" transform="translate(45.287 40.557)">
      <path id="Path_167" data-name="Path 167" d="M1.024.8C1.024.863,1,.9.952.9a2.506,2.506,0,0,0-1.117.308.2.2,0,0,1-.126.052c-.061,0-.089-.026-.089-.072L-.342.637a1.914,1.914,0,0,1-1.2.589A1.307,1.307,0,0,1-2.5.887a1.27,1.27,0,0,1-.343-.931V-1.69a.888.888,0,0,0-.1-.519.5.5,0,0,0-.407-.126c-.041,0-.081,0-.13,0s-.068-.037-.068-.115c0-.1.026-.14.072-.14a6.28,6.28,0,0,0,1.363-.2c.055,0,.081.037.081.109V-.253a1.135,1.135,0,0,0,.192.727A.756.756,0,0,0-1.241.7,1.055,1.055,0,0,0-.773.6,1.494,1.494,0,0,0-.342.257V-1.69A.842.842,0,0,0-.452-2.2a.506.506,0,0,0-.416-.131c-.037,0-.077,0-.126,0s-.066-.037-.066-.115c0-.1.023-.14.072-.14a6.271,6.271,0,0,0,1.36-.2c.054,0,.084.037.084.109V.134A.672.672,0,0,0,.543.541a.673.673,0,0,0,.41.147c.049,0,.072.037.072.115" transform="translate(3.555 2.786)"/>
    </g>
    <g id="Group_168" data-name="Group 168" transform="translate(50.374 40.501)">
      <path id="Path_168" data-name="Path 168" d="M.775.155A.322.322,0,0,1,.407.517.485.485,0,0,1,.146.452a.716.716,0,0,1-.2-.287A.717.717,0,0,0-.316-.174.66.66,0,0,0-.669-.258.928.928,0,0,0-1.5.186a2.4,2.4,0,0,0-.285,1.289,1.736,1.736,0,0,0,.362,1.146,1.179,1.179,0,0,0,.958.43A1.429,1.429,0,0,0,.616,2.636l.023-.012a.1.1,0,0,1,.075.054.164.164,0,0,1,.044.109c0,.061-.09.161-.264.3a1.846,1.846,0,0,1-.575.325,1.935,1.935,0,0,1-.661.112,1.862,1.862,0,0,1-1.376-.577,2,2,0,0,1-.571-1.467,1.917,1.917,0,0,1,.6-1.447A1.978,1.978,0,0,1-.669-.539,2.281,2.281,0,0,1,.352-.333c.282.135.423.3.423.488" transform="translate(2.688 0.539)"/>
    </g>
    <g id="Group_169" data-name="Group 169" transform="translate(54.607 40.501)">
      <path id="Path_169" data-name="Path 169" d="M.775.155A.322.322,0,0,1,.407.517.5.5,0,0,1,.146.452a.716.716,0,0,1-.2-.287A.731.731,0,0,0-.314-.174.675.675,0,0,0-.669-.258.931.931,0,0,0-1.5.186a2.4,2.4,0,0,0-.282,1.289,1.735,1.735,0,0,0,.359,1.146,1.179,1.179,0,0,0,.958.43A1.444,1.444,0,0,0,.62,2.636l.019-.012c.026,0,.052.019.077.054a.175.175,0,0,1,.041.109c0,.061-.09.161-.265.3a1.825,1.825,0,0,1-.573.325,1.935,1.935,0,0,1-.661.112,1.87,1.87,0,0,1-1.376-.577,2,2,0,0,1-.571-1.467,1.926,1.926,0,0,1,.6-1.447A1.982,1.982,0,0,1-.669-.539,2.281,2.281,0,0,1,.352-.333c.282.135.423.3.423.488" transform="translate(2.688 0.539)"/>
    </g>
    <g id="Group_170" data-name="Group 170" transform="translate(58.869 40.498)">
      <path id="Path_170" data-name="Path 170" d="M.64.9A.776.776,0,0,1,.2.779.583.583,0,0,1-.049.454,1.7,1.7,0,0,1-1.307.94.922.922,0,0,1-1.965.7.813.813,0,0,1-2.22.085q0-.9,2.18-1.462l.026-.685v-.023a.729.729,0,0,0-.161-.5.518.518,0,0,0-.419-.189.76.76,0,0,0-.451.129.371.371,0,0,0-.187.313.664.664,0,0,1-.152.439.5.5,0,0,1-.388.157A.332.332,0,0,1-2-1.822.289.289,0,0,1-2.1-2.046c0-.227.21-.462.629-.71A2.3,2.3,0,0,1-.3-3.132a1.1,1.1,0,0,1,.787.285.993.993,0,0,1,.3.755v.055L.723-.048v.032c0,.307.1.462.3.462A.562.562,0,0,0,1.371.267L1.4.26c.023,0,.046.017.068.049a.193.193,0,0,1,.03.1c0,.085-.089.189-.273.312A1.012,1.012,0,0,1,.64.9M-.049-1.079c-.873.2-1.309.514-1.309.96,0,.419.164.625.493.625A1.012,1.012,0,0,0-.4.391.636.636,0,0,0-.087.1Z" transform="translate(2.22 3.132)"/>
    </g>
    <g id="Group_171" data-name="Group 171" transform="translate(30.162 28.481)">
      <path id="Path_171" data-name="Path 171" d="M1.33,1.035c-.106.471-.213.967-.313,1.5a6.43,6.43,0,0,0-.93.121A7.9,7.9,0,0,1-1.186,2.8a3.869,3.869,0,0,1-1.794-.4,2.9,2.9,0,0,1-1.2-1.131,3.232,3.232,0,0,1-.43-1.642A3.11,3.11,0,0,1-4.161-2,3.147,3.147,0,0,1-2.9-3.174a3.815,3.815,0,0,1,1.8-.419A10.2,10.2,0,0,1,.026-3.5a7.216,7.216,0,0,0,.8.07c.04.413.106.909.206,1.5q0,.07-.143.07a.1.1,0,0,1-.109-.07,1.757,1.757,0,0,0-.694-.988,2.033,2.033,0,0,0-1.229-.388,2.224,2.224,0,0,0-1.769.857A3.144,3.144,0,0,0-3.626-.366a3.076,3.076,0,0,0,.708,2.048,2.178,2.178,0,0,0,1.731.841A2.314,2.314,0,0,0,1.082,1.035.123.123,0,0,1,1.2.963c.084,0,.126.026.126.072" transform="translate(4.614 3.593)"/>
    </g>
    <g id="Group_172" data-name="Group 172" transform="translate(36.683 30.8)">
      <path id="Path_172" data-name="Path 172" d="M.64.9A.776.776,0,0,1,.2.779.583.583,0,0,1-.049.454,1.7,1.7,0,0,1-1.306.94.927.927,0,0,1-1.964.7.815.815,0,0,1-2.222.085q0-.9,2.182-1.462l.026-.689v-.019a.725.725,0,0,0-.161-.5A.516.516,0,0,0-.6-2.778a.756.756,0,0,0-.447.129.369.369,0,0,0-.187.31.649.649,0,0,1-.156.442.488.488,0,0,1-.384.157A.332.332,0,0,1-2-1.822.289.289,0,0,1-2.1-2.046c0-.227.21-.462.629-.71A2.315,2.315,0,0,1-.3-3.132a1.1,1.1,0,0,1,.787.285.979.979,0,0,1,.3.755v.055L.72-.048v.032c0,.307.1.462.308.462A.562.562,0,0,0,1.372.267L1.4.26c.023,0,.046.017.068.049a.175.175,0,0,1,.03.1c0,.084-.089.191-.273.313A1.012,1.012,0,0,1,.64.9M-.049-1.079c-.873.2-1.309.514-1.309.96,0,.416.164.625.493.625A1.012,1.012,0,0,0-.4.391.631.631,0,0,0-.086.1Z" transform="translate(2.222 3.132)"/>
    </g>
    <g id="Group_173" data-name="Group 173" transform="translate(40.905 30.803)">
      <path id="Path_173" data-name="Path 173" d="M.617.626a1.136,1.136,0,0,1-.43.9A1.56,1.56,0,0,1-.855,1.9,3.569,3.569,0,0,1-1.519,1.8a2.972,2.972,0,0,0-.457-.067C-2,1.53-2.056,1.217-2.142.8c0-.046.043-.066.129-.066S-1.9.755-1.881.8a1.159,1.159,0,0,0,.407.568,1.012,1.012,0,0,0,.629.245.715.715,0,0,0,.52-.182A.667.667,0,0,0-.135.925.505.505,0,0,0-.293.56,2.439,2.439,0,0,0-.962.166a2.572,2.572,0,0,1-.9-.571,1.011,1.011,0,0,1-.213-.643.992.992,0,0,1,.408-.794A1.469,1.469,0,0,1-.7-2.173,3.923,3.923,0,0,1-.046-2.1a2.463,2.463,0,0,0,.3.046c.009.344.03.64.058.884,0,.044-.043.066-.129.066S.068-1.122.061-1.171a.932.932,0,0,0-.247-.52.632.632,0,0,0-.471-.2c-.468,0-.7.2-.7.6a.536.536,0,0,0,.164.376,2.981,2.981,0,0,0,.723.444A3.04,3.04,0,0,1,.4.089.793.793,0,0,1,.617.626" transform="translate(2.142 2.173)"/>
    </g>
    <g id="Group_174" data-name="Group 174" transform="translate(44.423 30.803)">
      <path id="Path_174" data-name="Path 174" d="M.617.626a1.136,1.136,0,0,1-.43.9A1.558,1.558,0,0,1-.853,1.9,3.6,3.6,0,0,1-1.519,1.8a2.89,2.89,0,0,0-.457-.067C-2,1.53-2.054,1.217-2.14.8c0-.046.044-.066.129-.066s.116.022.13.068a1.175,1.175,0,0,0,.407.568,1.012,1.012,0,0,0,.629.245.711.711,0,0,0,.52-.182A.666.666,0,0,0-.138.925.493.493,0,0,0-.294.56,2.4,2.4,0,0,0-.963.166a2.534,2.534,0,0,1-.9-.571.992.992,0,0,1-.216-.643.992.992,0,0,1,.408-.794A1.476,1.476,0,0,1-.7-2.173,3.9,3.9,0,0,1-.047-2.1a2.427,2.427,0,0,0,.3.046c.012.344.03.64.061.884,0,.044-.045.066-.131.066S.07-1.122.063-1.171a.949.949,0,0,0-.247-.52.642.642,0,0,0-.474-.2c-.465,0-.7.2-.7.6a.528.528,0,0,0,.166.376,2.9,2.9,0,0,0,.72.444A3.063,3.063,0,0,1,.407.089a.784.784,0,0,1,.21.537" transform="translate(2.14 2.173)"/>
    </g>
    <g id="Group_175" data-name="Group 175" transform="translate(47.898 30.8)">
      <path id="Path_175" data-name="Path 175" d="M.64.9A.776.776,0,0,1,.2.779.583.583,0,0,1-.051.454,1.7,1.7,0,0,1-1.306.94.933.933,0,0,1-1.967.7.822.822,0,0,1-2.222.085q0-.9,2.178-1.462l.027-.689v-.019a.731.731,0,0,0-.161-.5A.517.517,0,0,0-.6-2.778a.763.763,0,0,0-.448.129.365.365,0,0,0-.185.31.66.66,0,0,1-.153.442.5.5,0,0,1-.388.157.336.336,0,0,1-.232-.082A.288.288,0,0,1-2.1-2.046c0-.227.21-.462.626-.71A2.3,2.3,0,0,1-.3-3.132a1.1,1.1,0,0,1,.783.285.98.98,0,0,1,.3.755v.055L.72-.048v.032c0,.307.1.462.305.462A.565.565,0,0,0,1.369.267L1.4.26c.026,0,.045.017.068.049a.158.158,0,0,1,.032.1c0,.084-.093.191-.276.313A1.007,1.007,0,0,1,.64.9M-.051-1.079c-.873.2-1.31.514-1.31.96,0,.416.164.625.495.625A1.016,1.016,0,0,0-.4.391.655.655,0,0,0-.086.1Z" transform="translate(2.222 3.132)"/>
    </g>
    <g id="Group_176" data-name="Group 176" transform="translate(54.337 28.295)">
      <path id="Path_176" data-name="Path 176" d="M.994,1.377c0,.061-.023.1-.07.1A3.869,3.869,0,0,0,.333,1.6a3.107,3.107,0,0,0-.528.184.344.344,0,0,1-.14.048c-.049,0-.072-.022-.072-.071l.035-.474A1.584,1.584,0,0,1-1.581,1.8a1.752,1.752,0,0,1-1.327-.586,1.991,1.991,0,0,1-.542-1.4,1.978,1.978,0,0,1,.6-1.5A2.112,2.112,0,0,1-1.331-2.27a1.606,1.606,0,0,1,.958.316V-3.422a.843.843,0,0,0-.089-.465.645.645,0,0,0-.413-.146c-.049-.006-.07-.044-.07-.109s.021-.115.07-.115A3.856,3.856,0,0,0-.143-4.49a1.434,1.434,0,0,0,.416-.243.143.143,0,0,1,.1-.044c.084,0,.126.023.126.072C.445-4.065.422-3.556.422-3.172V.7a.662.662,0,0,0,.09.411.683.683,0,0,0,.412.147c.046,0,.07.037.07.115M-.373.9V-1.354a.551.551,0,0,0-.273-.43.939.939,0,0,0-.589-.2q-1.308,0-1.309,1.806A2.1,2.1,0,0,0-2.23,1a.953.953,0,0,0,.827.471,1.126,1.126,0,0,0,.528-.126A1.91,1.91,0,0,0-.373.9" transform="translate(3.45 4.777)"/>
    </g>
    <g id="Group_177" data-name="Group 177" transform="translate(59.156 28.831)">
      <path id="Path_177" data-name="Path 177" d="M.343.1A.436.436,0,0,1,.2.425.438.438,0,0,1-.122.563.46.46,0,0,1-.456.425.449.449,0,0,1-.59.1.446.446,0,0,1-.456-.224.46.46,0,0,1-.122-.357.454.454,0,0,1,.2-.224.433.433,0,0,1,.343.1M.972,5.427c0,.082-.023.122-.072.122-.122,0-.281-.008-.47-.026C.214,5.507.032,5.5-.113,5.5s-.331.009-.54.026c-.187.018-.345.026-.466.026-.048,0-.071-.04-.071-.122s.023-.112.071-.119a.769.769,0,0,0,.488-.18.954.954,0,0,0,.112-.566V2.934A.8.8,0,0,0-.61,2.472a.64.64,0,0,0-.4-.147c-.049,0-.075-.037-.075-.112s.026-.106.075-.106a5.2,5.2,0,0,0,.77-.252,1.2,1.2,0,0,0,.376-.224.126.126,0,0,1,.1-.052c.086,0,.126.023.126.068C.315,2.306.289,2.816.289,3.182V4.562A.993.993,0,0,0,.4,5.128a.811.811,0,0,0,.5.18c.049.006.072.046.072.119" transform="translate(1.19 0.357)"/>
    </g>
    <g id="Group_178" data-name="Group 178" transform="translate(64.124 28.613)">
      <path id="Path_178" data-name="Path 178" d="M1.4,1.343c0,.084-.026.124-.072.124-.112,0-.292-.009-.542-.032C.6,1.42.477,1.415.417,1.415c-.086,0-.224.008-.408.026s-.321.026-.407.026L-1.76-.711a2.2,2.2,0,0,0-.465-.577,1.356,1.356,0,0,0-.708-.126V.478a.894.894,0,0,0,.077.434.566.566,0,0,0,.278.2A3.077,3.077,0,0,0-2,1.225c.049.005.075.043.075.117s-.023.124-.072.124c-.2,0-.439-.009-.718-.026s-.488-.026-.672-.026-.4.008-.669.026-.511.026-.712.026c-.049,0-.072-.04-.072-.124s.023-.112.072-.117A3.008,3.008,0,0,0-4.2,1.109a.554.554,0,0,0,.274-.2A.855.855,0,0,0-3.847.478V-3.665a.843.843,0,0,0-.077-.425.489.489,0,0,0-.271-.2,2.519,2.519,0,0,0-.577-.119c-.049,0-.072-.043-.072-.124s.023-.124.072-.124c.2,0,.437.009.712.027s.488.026.669.026.406-.009.672-.026S-2.2-4.659-2-4.659a2.513,2.513,0,0,1,1.548.42A1.376,1.376,0,0,1,.095-3.073a1.283,1.283,0,0,1-.381.884,2.427,2.427,0,0,1-1.023.626L.139.6A1.157,1.157,0,0,0,.6,1.036a2.381,2.381,0,0,0,.732.189c.04.005.063.043.063.117M-.892-3.073q0-1.289-1.144-1.287a1.963,1.963,0,0,0-.573.063.4.4,0,0,0-.261.184,1.089,1.089,0,0,0-.063.448V-1.7a5.076,5.076,0,0,0,.654.035A1.445,1.445,0,0,0-1.223-2a1.485,1.485,0,0,0,.331-1.07" transform="translate(4.844 4.659)"/>
    </g>
    <g id="Group_179" data-name="Group 179" transform="translate(70.743 28.831)">
      <path id="Path_179" data-name="Path 179" d="M.344.1A.446.446,0,0,1,.2.425.44.44,0,0,1-.124.563.452.452,0,0,1-.455.425.439.439,0,0,1-.589.1.436.436,0,0,1-.455-.224.458.458,0,0,1-.124-.357.455.455,0,0,1,.2-.224.442.442,0,0,1,.344.1M.97,5.427c0,.082-.023.122-.072.122-.12,0-.278-.008-.468-.026C.211,5.507.031,5.5-.112,5.5s-.331.009-.54.026c-.191.018-.345.026-.466.026-.048,0-.075-.04-.075-.122s.027-.112.075-.119a.769.769,0,0,0,.488-.18.954.954,0,0,0,.112-.566V2.934a.773.773,0,0,0-.094-.462.634.634,0,0,0-.4-.147c-.049,0-.072-.037-.072-.112s.023-.106.072-.106a5.239,5.239,0,0,0,.773-.252,1.281,1.281,0,0,0,.375-.224.125.125,0,0,1,.1-.052c.084,0,.126.023.126.068C.312,2.306.29,2.816.29,3.182V4.562A.961.961,0,0,0,.4,5.128a.8.8,0,0,0,.5.18c.049.006.072.046.072.119" transform="translate(1.193 0.357)"/>
    </g>
    <g id="Group_180" data-name="Group 180" transform="translate(73.502 30.803)">
      <path id="Path_180" data-name="Path 180" d="M.617.626a1.14,1.14,0,0,1-.43.9A1.56,1.56,0,0,1-.855,1.9,3.521,3.521,0,0,1-1.516,1.8a3.035,3.035,0,0,0-.46-.067C-2,1.53-2.053,1.217-2.142.8c0-.046.043-.066.129-.066s.119.022.133.068a1.159,1.159,0,0,0,.407.568,1.012,1.012,0,0,0,.629.245.711.711,0,0,0,.52-.182A.666.666,0,0,0-.138.925.5.5,0,0,0-.293.56,2.439,2.439,0,0,0-.962.166a2.572,2.572,0,0,1-.9-.571,1.013,1.013,0,0,1-.215-.643,1,1,0,0,1,.411-.794A1.469,1.469,0,0,1-.7-2.173,3.923,3.923,0,0,1-.046-2.1a2.427,2.427,0,0,0,.3.046c.009.344.03.64.058.884,0,.044-.043.066-.129.066S.068-1.122.061-1.171a.915.915,0,0,0-.247-.52.632.632,0,0,0-.471-.2c-.468,0-.7.2-.7.6a.536.536,0,0,0,.164.376,2.981,2.981,0,0,0,.723.444A3.04,3.04,0,0,1,.4.089.793.793,0,0,1,.617.626" transform="translate(2.142 2.173)"/>
    </g>
    <g id="Group_181" data-name="Group 181" transform="translate(76.673 30.766)">
      <path id="Path_181" data-name="Path 181" d="M1.01.469a1.9,1.9,0,0,1-.6,1.439,2.116,2.116,0,0,1-1.524.571,1.927,1.927,0,0,1-.916-.2V3.63a.955.955,0,0,0,.112.563.786.786,0,0,0,.5.187c.045,0,.071.04.071.124s-.026.124-.071.124c-.124,0-.282-.009-.477-.027-.21-.019-.385-.028-.529-.028s-.33.009-.542.028c-.189.018-.348.027-.47.027-.049,0-.072-.044-.072-.124s.023-.124.072-.124a.768.768,0,0,0,.493-.187.927.927,0,0,0,.117-.563v-3.9a.773.773,0,0,0-.094-.462.637.637,0,0,0-.411-.143c-.046,0-.068-.037-.068-.116s.022-.106.068-.106A3.8,3.8,0,0,0-2.6-1.34a1.467,1.467,0,0,0,.39-.236.132.132,0,0,1,.093-.052c.086,0,.126.023.126.072L-2.027-1a2.286,2.286,0,0,1,.571-.42,1.228,1.228,0,0,1,.551-.171,1.8,1.8,0,0,1,1.4.568A2.136,2.136,0,0,1,1.01.469M.109.46A1.793,1.793,0,0,0-.219-.685,1.089,1.089,0,0,0-1.129-1.1a1,1,0,0,0-.447.1,1.727,1.727,0,0,0-.451.376V1.534a.568.568,0,0,0,.258.471,1.013,1.013,0,0,0,.623.189,1.073,1.073,0,0,0,.93-.448A2.2,2.2,0,0,0,.109.46" transform="translate(3.506 1.627)"/>
    </g>
    <g id="Group_182" data-name="Group 182" transform="translate(81.984 30.8)">
      <path id="Path_182" data-name="Path 182" d="M.64.9A.776.776,0,0,1,.2.779.583.583,0,0,1-.049.454,1.7,1.7,0,0,1-1.3.94.933.933,0,0,1-1.965.7.813.813,0,0,1-2.22.085q0-.9,2.18-1.462l.026-.689v-.019a.744.744,0,0,0-.161-.5A.521.521,0,0,0-.6-2.778a.756.756,0,0,0-.447.129.369.369,0,0,0-.187.31.649.649,0,0,1-.156.442.485.485,0,0,1-.384.157A.337.337,0,0,1-2-1.822a.288.288,0,0,1-.089-.224c0-.227.21-.462.626-.71A2.3,2.3,0,0,1-.3-3.132a1.1,1.1,0,0,1,.784.285.993.993,0,0,1,.3.755v.055L.723-.048v.032c0,.307.1.462.3.462A.562.562,0,0,0,1.371.267L1.4.26c.026,0,.046.017.068.049a.156.156,0,0,1,.03.1c0,.084-.089.191-.273.313A1.012,1.012,0,0,1,.64.9M-.049-1.079c-.873.2-1.309.514-1.309.96,0,.416.164.625.493.625A1.012,1.012,0,0,0-.4.391.655.655,0,0,0-.084.1Z" transform="translate(2.22 3.132)"/>
    </g>
    <g id="Group_183" data-name="Group 183" transform="translate(85.949 30.765)">
      <path id="Path_183" data-name="Path 183" d="M.7.107a.438.438,0,0,1-.112.3A.343.343,0,0,1,.322.529.718.718,0,0,1-.068.4.486.486,0,0,0-.332.3a.849.849,0,0,0-.6.332V2.616A.826.826,0,0,0-.8,3.153a.957.957,0,0,0,.575.206c.049.006.072.046.072.121S-.178,3.6-.227,3.6c-.124,0-.295-.009-.519-.026-.247-.021-.446-.03-.591-.03s-.331.009-.544.03c-.192.017-.35.026-.473.026-.046,0-.07-.044-.07-.124s.023-.115.07-.121a.789.789,0,0,0,.5-.178.959.959,0,0,0,.112-.566V.988A.765.765,0,0,0-1.837.525.62.62,0,0,0-2.245.38c-.049,0-.071-.037-.071-.115s.022-.1.071-.1a4.3,4.3,0,0,0,.733-.243,1.372,1.372,0,0,0,.379-.233A.176.176,0,0,1-1.024-.37C-.942-.37-.9-.344-.9-.3L-.935.256A3.161,3.161,0,0,1-.321-.2,1.122,1.122,0,0,1,.2-.333.5.5,0,0,1,.549-.2.4.4,0,0,1,.7.107" transform="translate(2.423 0.37)"/>
    </g>
    <g id="Group_184" data-name="Group 184" transform="translate(89.385 30.767)">
      <path id="Path_184" data-name="Path 184" d="M1.6.861c0,.084-.023.124-.072.124-.12,0-.267-.009-.439-.026C.895.941.725.933.577.933S.26.941.068.959C-.1.975-.254.984-.377.984c-.046,0-.072-.04-.072-.124S-.423.749-.377.744a.559.559,0,0,0,.4-.173A1.191,1.191,0,0,0,.117,0V-1.473a1.1,1.1,0,0,0-.192-.721.755.755,0,0,0-.607-.229,1.2,1.2,0,0,0-.9.362V0a1.085,1.085,0,0,0,.1.572.569.569,0,0,0,.4.173C-1.03.749-1,.786-1,.861s-.027.124-.072.124a4.116,4.116,0,0,1-.42-.026A4.531,4.531,0,0,0-1.967.933,4.909,4.909,0,0,0-2.46.959a3.979,3.979,0,0,1-.412.026c-.049,0-.075-.04-.075-.124s.026-.112.075-.117a.557.557,0,0,0,.4-.173A1.1,1.1,0,0,0-2.373,0V-1.473a1.11,1.11,0,0,0-.195-.721.77.77,0,0,0-.612-.229,1.047,1.047,0,0,0-.462.1,1.509,1.509,0,0,0-.425.341V0a1.171,1.171,0,0,0,.093.572.583.583,0,0,0,.41.173c.049.005.072.043.072.117s-.023.124-.072.124c-.124,0-.272-.009-.447-.026-.2-.018-.368-.026-.514-.026s-.319.008-.509.026c-.173.017-.318.026-.442.026-.046,0-.07-.04-.07-.124s.023-.112.07-.117A.769.769,0,0,0-4.988.562.926.926,0,0,0-4.874,0V-1.632a.774.774,0,0,0-.1-.462.634.634,0,0,0-.4-.146c-.049,0-.072-.037-.072-.115s.023-.1.072-.1A4.36,4.36,0,0,0-4.626-2.7a1.321,1.321,0,0,0,.37-.231.137.137,0,0,1,.1-.052c.086,0,.129.023.129.07l-.037.556a1.853,1.853,0,0,1,1.2-.591,1.162,1.162,0,0,1,1.157.643A1.992,1.992,0,0,1-.377-2.952a1.285,1.285,0,0,1,.956.344,1.253,1.253,0,0,1,.347.925V0a.98.98,0,0,0,.107.563.8.8,0,0,0,.493.182c.049.005.072.043.072.117" transform="translate(5.546 2.987)"/>
    </g>
    <g id="Group_185" data-name="Group 185" transform="translate(96.892 28.831)">
      <path id="Path_185" data-name="Path 185" d="M.343.1A.443.443,0,0,1,.205.425.444.444,0,0,1-.122.563.46.46,0,0,1-.456.425.449.449,0,0,1-.59.1.446.446,0,0,1-.456-.224.47.47,0,0,1-.122-.357a.46.46,0,0,1,.327.133A.44.44,0,0,1,.343.1M.972,5.427c0,.082-.023.122-.072.122-.122,0-.281-.008-.47-.026C.214,5.507.032,5.5-.113,5.5s-.331.009-.54.026c-.187.018-.343.026-.466.026-.048,0-.071-.04-.071-.122s.023-.112.071-.119a.769.769,0,0,0,.488-.18.954.954,0,0,0,.112-.566V2.934A.8.8,0,0,0-.61,2.472a.643.643,0,0,0-.4-.147c-.046,0-.072-.037-.072-.112s.026-.106.072-.106a5.139,5.139,0,0,0,.773-.252,1.2,1.2,0,0,0,.376-.224.126.126,0,0,1,.1-.052c.086,0,.126.023.126.068C.315,2.306.289,2.816.289,3.182V4.562A.993.993,0,0,0,.4,5.128a.811.811,0,0,0,.5.18c.049.006.072.046.072.119" transform="translate(1.19 0.357)"/>
    </g>
    <g id="Group_186" data-name="Group 186" transform="translate(99.583 30.801)">
      <path id="Path_186" data-name="Path 186" d="M.934.461A1.934,1.934,0,0,1,.352,1.905a2.066,2.066,0,0,1-1.5.566A2.065,2.065,0,0,1-2.657,1.9,1.911,1.911,0,0,1-3.241.461a1.98,1.98,0,0,1,.586-1.47A2.031,2.031,0,0,1-1.15-1.6a2.034,2.034,0,0,1,1.5.585A2.018,2.018,0,0,1,.934.461M.032.452A2.3,2.3,0,0,0-.286-.834a.98.98,0,0,0-.864-.483.99.99,0,0,0-.867.483A2.312,2.312,0,0,0-2.337.452a2.264,2.264,0,0,0,.313,1.27,1,1,0,0,0,.873.465.994.994,0,0,0,.87-.462A2.268,2.268,0,0,0,.032.452" transform="translate(3.241 1.6)"/>
    </g>
    <g id="Group_187" data-name="Group 187" transform="translate(30.021 18.916)">
      <path id="Path_187" data-name="Path 187" d="M1.112.3C1.112.362,1.06.39.953.39A.089.089,0,0,1,.859.327,1.421,1.421,0,0,0,.322-.449,1.607,1.607,0,0,0-.611-.713h-.808a.468.468,0,0,0-.531.528V1.777H-.924a.738.738,0,0,0,.605-.2A1.542,1.542,0,0,0-.091.855c0-.045.04-.068.121-.068S.156.81.156.855c0,.147-.009.334-.028.554S.1,1.8.1,1.935s.009.313.027.528c.019.231.028.417.028.563,0,.049-.04.072-.126.072s-.121-.023-.121-.072a1.615,1.615,0,0,0-.241-.752.713.713,0,0,0-.591-.215H-1.949V4.091a.894.894,0,0,0,.077.434.576.576,0,0,0,.278.2,3.2,3.2,0,0,0,.575.115c.049.005.075.043.075.117s-.023.124-.072.124c-.2,0-.439-.009-.718-.026s-.488-.028-.671-.028-.406.012-.67.028-.511.026-.712.026c-.048,0-.071-.04-.071-.124s.023-.112.071-.117a3.132,3.132,0,0,0,.569-.115.537.537,0,0,0,.272-.2.823.823,0,0,0,.084-.434V-.052A.861.861,0,0,0-2.94-.479a.49.49,0,0,0-.267-.2A2.668,2.668,0,0,0-3.787-.8c-.048,0-.071-.043-.071-.124s.023-.122.071-.122q1.128.05,2.315.052,1.121,0,2.248-.052A11.452,11.452,0,0,0,1.112.3" transform="translate(3.858 1.045)"/>
    </g>
    <g id="Group_188" data-name="Group 188" transform="translate(35.069 21.102)">
      <path id="Path_188" data-name="Path 188" d="M.935.461A1.934,1.934,0,0,1,.352,1.905a2.062,2.062,0,0,1-1.5.566A2.079,2.079,0,0,1-2.661,1.9,1.928,1.928,0,0,1-3.243.461a2,2,0,0,1,.589-1.47A2.031,2.031,0,0,1-1.15-1.6a2.038,2.038,0,0,1,1.5.585A2.018,2.018,0,0,1,.935.461M.033.452A2.294,2.294,0,0,0-.285-.834a.98.98,0,0,0-.864-.483.99.99,0,0,0-.867.483A2.312,2.312,0,0,0-2.336.452a2.255,2.255,0,0,0,.313,1.27,1,1,0,0,0,.873.465.994.994,0,0,0,.87-.462A2.268,2.268,0,0,0,.033.452" transform="translate(3.243 1.6)"/>
    </g>
    <g id="Group_189" data-name="Group 189" transform="translate(39.869 21.069)">
      <path id="Path_189" data-name="Path 189" d="M1.041.861c0,.084-.023.124-.072.124C.849.984.7.975.529.959.337.941.167.929.022.929S-.3.941-.492.959-.817.984-.938.984c-.049,0-.071-.04-.071-.124S-.987.749-.938.744A.575.575,0,0,0-.532.571,1.135,1.135,0,0,0-.436,0v-1.47a1.092,1.092,0,0,0-.2-.721.752.752,0,0,0-.609-.229,1.039,1.039,0,0,0-.462.1,1.509,1.509,0,0,0-.425.341V0a1.176,1.176,0,0,0,.093.575.594.594,0,0,0,.41.173c.046.005.07.043.07.117s-.023.124-.07.124c-.124,0-.272-.009-.451-.026s-.365-.03-.51-.03-.31.012-.5.03c-.175.017-.325.026-.448.026-.046,0-.072-.04-.072-.124s.026-.112.072-.117a.818.818,0,0,0,.5-.182A.935.935,0,0,0-2.931,0V-1.632a.786.786,0,0,0-.091-.462.619.619,0,0,0-.407-.146c-.049,0-.072-.037-.072-.115s.023-.1.072-.1A4.194,4.194,0,0,0-2.693-2.7a1.3,1.3,0,0,0,.374-.231.127.127,0,0,1,.1-.052c.081,0,.124.023.124.07l-.035.554a1.855,1.855,0,0,1,1.2-.589,1.275,1.275,0,0,1,.951.344,1.249,1.249,0,0,1,.347.925V0A.984.984,0,0,0,.475.562.816.816,0,0,0,.968.744c.049.005.072.043.072.117" transform="translate(3.611 2.987)"/>
    </g>
    <g id="Group_190" data-name="Group 190" transform="translate(45.02 18.597)">
      <path id="Path_190" data-name="Path 190" d="M.994,1.377c0,.061-.023.094-.068.1a3.94,3.94,0,0,0-.6.124A3.288,3.288,0,0,0-.2,1.784a.329.329,0,0,1-.143.049.061.061,0,0,1-.07-.068l.035-.477A1.577,1.577,0,0,1-1.585,1.8a1.741,1.741,0,0,1-1.32-.586,1.994,1.994,0,0,1-.542-1.4,1.974,1.974,0,0,1,.6-1.5A2.112,2.112,0,0,1-1.332-2.27a1.6,1.6,0,0,1,.958.316V-3.422a.809.809,0,0,0-.089-.465.645.645,0,0,0-.413-.146c-.046-.006-.072-.044-.072-.109s.026-.115.072-.115A4.155,4.155,0,0,0-.144-4.49a1.5,1.5,0,0,0,.417-.243.127.127,0,0,1,.094-.044c.084,0,.126.023.126.072-.049.64-.075,1.149-.075,1.53V.7a.652.652,0,0,0,.093.411.692.692,0,0,0,.413.147c.045,0,.068.037.068.115M-.373.9V-1.354a.553.553,0,0,0-.273-.43.945.945,0,0,0-.589-.2q-1.308,0-1.309,1.806A2.084,2.084,0,0,0-2.231,1a.952.952,0,0,0,.827.47,1.111,1.111,0,0,0,.528-.126A1.919,1.919,0,0,0-.373.9" transform="translate(3.448 4.777)"/>
    </g>
    <g id="Group_191" data-name="Group 191" transform="translate(49.95 21.101)">
      <path id="Path_191" data-name="Path 191" d="M.64.9A.776.776,0,0,1,.2.779.588.588,0,0,1-.049.454,1.7,1.7,0,0,1-1.306.94.927.927,0,0,1-1.964.7.815.815,0,0,1-2.222.085q0-.9,2.182-1.462l.026-.685v-.023a.725.725,0,0,0-.161-.5A.521.521,0,0,0-.6-2.778a.759.759,0,0,0-.447.129.378.378,0,0,0-.189.31.618.618,0,0,1-.153.442.488.488,0,0,1-.384.157A.332.332,0,0,1-2-1.822.289.289,0,0,1-2.1-2.046c0-.227.21-.462.629-.71A2.315,2.315,0,0,1-.3-3.132a1.1,1.1,0,0,1,.787.285.981.981,0,0,1,.3.757v.053L.724-.048v.032c0,.307.1.462.3.462A.574.574,0,0,0,1.372.271L1.4.26c.023,0,.046.017.068.049a.173.173,0,0,1,.032.1c0,.086-.091.191-.276.313A1.012,1.012,0,0,1,.64.9M-.049-1.079c-.872.2-1.313.514-1.313.96,0,.419.167.625.5.625A1.012,1.012,0,0,0-.4.391.631.631,0,0,0-.086.1Z" transform="translate(2.222 3.132)"/>
    </g>
    <g id="Group_192" data-name="Group 192" transform="translate(53.996 21.199)">
      <path id="Path_192" data-name="Path 192" d="M.808.611A8.947,8.947,0,0,0,.434,1.719a13.6,13.6,0,0,0-1.559-.052,13.4,13.4,0,0,0-1.593.052c-.055,0-.086-.031-.086-.094l.014-.04L-.344-1.741H-1.432a.871.871,0,0,0-.542.207,1.107,1.107,0,0,0-.356.514c-.018.049-.063.072-.14.072s-.112-.023-.112-.072a8.527,8.527,0,0,0,.372-1.1,8.693,8.693,0,0,0,1.345.055A11.215,11.215,0,0,0,.679-2.12c.045,0,.071.035.071.1L.742-1.98-1.69,1.335H-.344A.872.872,0,0,0,.2,1.125,1.032,1.032,0,0,0,.553.611C.567.565.612.539.7.539S.808.565.808.611" transform="translate(2.804 2.12)"/>
    </g>
    <g id="Group_193" data-name="Group 193" transform="translate(58.112 19.133)">
      <path id="Path_193" data-name="Path 193" d="M.344.1A.446.446,0,0,1,.2.425.448.448,0,0,1-.121.563.464.464,0,0,1-.455.425.449.449,0,0,1-.589.1.446.446,0,0,1-.455-.224.46.46,0,0,1-.121-.357.454.454,0,0,1,.2-.224.442.442,0,0,1,.344.1M.97,5.427c0,.082-.023.122-.072.122-.12,0-.278-.008-.468-.026C.215,5.507.033,5.5-.112,5.5s-.331.012-.54.028c-.191.018-.345.026-.466.026-.048,0-.075-.04-.075-.122s.027-.112.075-.119a.8.8,0,0,0,.488-.18.975.975,0,0,0,.112-.566V2.934a.782.782,0,0,0-.094-.462.605.605,0,0,0-.4-.147c-.049,0-.072-.037-.072-.115s.023-.1.072-.1a5.239,5.239,0,0,0,.773-.252,1.375,1.375,0,0,0,.375-.224.128.128,0,0,1,.1-.052c.084,0,.126.023.126.068C.312,2.306.29,2.816.29,3.18V4.562A.961.961,0,0,0,.4,5.128a.826.826,0,0,0,.5.18c.049.006.072.044.072.119" transform="translate(1.193 0.357)"/>
    </g>
    <g id="Group_194" data-name="Group 194" transform="translate(60.805 21.102)">
      <path id="Path_194" data-name="Path 194" d="M.934.461A1.934,1.934,0,0,1,.352,1.905a2.062,2.062,0,0,1-1.5.566A2.066,2.066,0,0,1-2.657,1.9,1.914,1.914,0,0,1-3.241.461a2,2,0,0,1,.586-1.47A2.031,2.031,0,0,1-1.15-1.6a2.038,2.038,0,0,1,1.5.585A2.018,2.018,0,0,1,.934.461M.032.452A2.294,2.294,0,0,0-.286-.834a.98.98,0,0,0-.864-.483.99.99,0,0,0-.867.483A2.312,2.312,0,0,0-2.334.452a2.266,2.266,0,0,0,.313,1.27.994.994,0,0,0,.871.465.994.994,0,0,0,.87-.462A2.247,2.247,0,0,0,.032.452" transform="translate(3.241 1.6)"/>
    </g>
    <g id="Group_195" data-name="Group 195" transform="translate(65.603 21.069)">
      <path id="Path_195" data-name="Path 195" d="M1.041.861c0,.084-.023.124-.072.124C.849.984.7.975.529.959.337.941.171.929.024.929S-.3.941-.492.959C-.668.975-.817.984-.938.984c-.045,0-.071-.04-.071-.124S-.983.749-.938.744A.578.578,0,0,0-.532.571,1.1,1.1,0,0,0-.432,0v-1.47a1.077,1.077,0,0,0-.2-.721.752.752,0,0,0-.609-.229,1.047,1.047,0,0,0-.462.1,1.545,1.545,0,0,0-.425.341V0a1.138,1.138,0,0,0,.1.575.587.587,0,0,0,.407.173c.049.005.072.043.072.117s-.023.124-.072.124c-.124,0-.272-.009-.451-.026s-.362-.03-.51-.03-.31.012-.5.03-.327.026-.451.026c-.046,0-.072-.04-.072-.124s.026-.112.072-.117a.833.833,0,0,0,.5-.182A.965.965,0,0,0-2.927,0V-1.632a.76.76,0,0,0-.1-.462.619.619,0,0,0-.407-.146c-.049,0-.072-.037-.072-.115s.023-.1.072-.1A4.36,4.36,0,0,0-2.689-2.7a1.321,1.321,0,0,0,.37-.231.133.133,0,0,1,.1-.052c.086,0,.126.023.126.07l-.035.554a1.855,1.855,0,0,1,1.2-.589,1.285,1.285,0,0,1,.951.344,1.247,1.247,0,0,1,.344.925V0A.984.984,0,0,0,.475.562.824.824,0,0,0,.968.744c.049.005.072.043.072.117" transform="translate(3.611 2.987)"/>
    </g>
    <g id="Group_196" data-name="Group 196" transform="translate(70.708 21.103)">
      <path id="Path_196" data-name="Path 196" d="M.794.321C.794.405.743.445.633.445H-1.824A4.642,4.642,0,0,0-1.85.938a1.6,1.6,0,0,0,.339,1.091,1.264,1.264,0,0,0,.979.379,1.371,1.371,0,0,0,.64-.166,1.519,1.519,0,0,0,.52-.428l.023-.009a.105.105,0,0,1,.077.049.164.164,0,0,1,.04.115c0,.061-.1.189-.287.388A2.085,2.085,0,0,1-.142,2.8a1.661,1.661,0,0,1-.7.155,1.8,1.8,0,0,1-1.36-.58A1.994,1.994,0,0,1-2.757.947a2.1,2.1,0,0,1,.54-1.462,1.775,1.775,0,0,1,1.372-.6A1.621,1.621,0,0,1,.32-.664,1.329,1.329,0,0,1,.794.321M-.021-.066A.7.7,0,0,0-.254-.611.818.818,0,0,0-.845-.833a.78.78,0,0,0-.6.287A1.508,1.508,0,0,0-1.787.2L-.54.163a1.108,1.108,0,0,0,.4-.054A.172.172,0,0,0-.021-.066" transform="translate(2.757 1.115)"/>
    </g>
    <g id="Group_197" data-name="Group 197" transform="translate(0 0)">
      <path id="Path_197" data-name="Path 197" d="M9.508,4.22A19.95,19.95,0,0,0,7.74-2.931C8.406-3.21,8.8-3.4,8.866-3.438S9.112-3.7,9.359-6l.012-.1-.1.018c-.976.183-1.976.358-2.977.519a19.952,19.952,0,0,0-16.765-9.087A19.935,19.935,0,0,0-27.284-5.485c-1.886-.365-3.009-.683-3.241-.75l0-.017h-.066l-.012.07-.031-.053a21.719,21.719,0,0,1-2.171.672L-33-5.508l.178.084c1.467.678,2.96,1.3,4.442,1.858a19.817,19.817,0,0,0-2.1,8.948,19.925,19.925,0,0,0,9.547,17.075l.067.04.447-.778-.048-.037c-4.979-3.844-7.506-9.28-7.506-16.156a18.847,18.847,0,0,1,1.858-8.292A56.264,56.264,0,0,0-13.666-.135L-13.715.3c-.1,1.028-1.49,28.924-1.5,29.206l0,.071,2.236.2-.582,3.241,3.345.21-.1-3.322,2.491.169,0-.077c0-.241-.4-24.165-.6-27.141-.061-.885-.146-1.843-.252-2.78a45.538,45.538,0,0,0,14.9-2.437,17.9,17.9,0,0,1,1.663,6.57l.005.068L9.511,4.3ZM-15.6-9.263A6.122,6.122,0,0,1-15.112-8.2c.2.491.622,1.332,1.033,2.147.4.795.775,1.547.824,1.74a.9.9,0,0,1,.014.2,87.623,87.623,0,0,1-11.551-.942,17.3,17.3,0,0,1,14.523-7.478A18.045,18.045,0,0,1,4.469-5.281,107.581,107.581,0,0,1-9.379-4.146c-.832-3.339-1.418-4.976-1.427-5l-.732-1.432-4.028,1.2-.107.035Z" transform="translate(32.997 14.646)" fill="#ca1"/>
    </g>
  </g>
</svg>
