<svg xmlns="http://www.w3.org/2000/svg" width="351.582" height="350.381" viewBox="0 0 351.582 350.381">
  <g id="Group_298" data-name="Group 298" transform="translate(-39.209 -32.405)">
    <path id="Path_61" data-name="Path 61" d="M8.428,4.113-20.6-81.678l.4,90.569L-75.525-62.823-45.743,22.71l-75.6-49.868L-65.407,44.07l-87.7-22.616L-77.07,70.659l-90.292,7.084,87.9,21.851-83.1,36.019,90.228-7.873-66.9,61.049,82.782-36.745-43.454,79.466,66.366-61.633-15.3,89.27L-6.088,179.3,8.428,268.7l14.517-89.4L65.7,259.146l-15.3-89.27,66.367,61.633L73.318,152.043,156.1,188.788,89.2,127.739l90.227,7.873-83.1-36.019,87.9-21.851L93.927,70.659l76.039-49.205L82.264,44.07l55.942-71.228L62.6,22.71,92.383-62.823,37.066,8.891l.4-90.569Z" transform="translate(206.571 114.083)" fill="#fff"/>
    <g id="Group_226" data-name="Group 226" transform="translate(149.389 139.856)">
      <g id="Group_63" data-name="Group 63" transform="translate(88.017 60.4)">
        <path id="Path_62" data-name="Path 62" d="M.094.852c0,.362-.011.722-.028,1.08L18.443-2.636-.454-4.118A22.948,22.948,0,0,1,.094.852" transform="translate(0.454 4.118)" fill="#ca1"/>
      </g>
      <g id="Group_64" data-name="Group 64" transform="translate(35.121 37.235)">
        <path id="Path_63" data-name="Path 63" d="M2.719,1.793-13.142-8.669-1.412,6.267A23.116,23.116,0,0,1,2.719,1.793" transform="translate(13.142 8.669)" fill="#ca1"/>
      </g>
      <g id="Group_65" data-name="Group 65" transform="translate(58.79 24.427)">
        <path id="Path_64" data-name="Path 64" d="M1.045,3.087-5.05-14.922l.083,19a22.842,22.842,0,0,1,6.011-.992" transform="translate(5.05 14.922)" fill="#ca1"/>
      </g>
      <g id="Group_66" data-name="Group 66" transform="translate(27.658 48.658)">
        <path id="Path_65" data-name="Path 65" d="M3.151.812l-18.38-4.739L.69,6.374A22.819,22.819,0,0,1,3.151.812" transform="translate(15.229 3.927)" fill="#ca1"/>
      </g>
      <g id="Group_67" data-name="Group 67" transform="translate(24.309 60.4)">
        <path id="Path_66" data-name="Path 66" d="M3.145.852a22.948,22.948,0,0,1,.548-4.97L-15.2-2.636,3.174,1.932c-.017-.358-.029-.718-.029-1.08" transform="translate(15.204 4.118)" fill="#ca1"/>
      </g>
      <g id="Group_68" data-name="Group 68" transform="translate(45.887 28.856)">
        <path id="Path_67" data-name="Path 67" d="M1.99,2.58-9.617-12.469l6.249,17.95A22.9,22.9,0,0,1,1.99,2.58" transform="translate(9.617 12.469)" fill="#ca1"/>
      </g>
      <g id="Group_69" data-name="Group 69" transform="translate(85.186 48.657)">
        <path id="Path_68" data-name="Path 68" d="M.422,1.766l15.919-10.3L-2.039-3.8A22.819,22.819,0,0,1,.422,1.766" transform="translate(2.039 8.535)" fill="#ca1"/>
      </g>
      <g id="Group_70" data-name="Group 70" transform="translate(80.242 37.236)">
        <path id="Path_69" data-name="Path 69" d="M.708,2.56l11.73-14.935L-3.423-1.914A23.154,23.154,0,0,1,.708,2.56" transform="translate(3.423 12.375)" fill="#ca1"/>
      </g>
      <g id="Group_71" data-name="Group 71" transform="translate(66.339 24.426)">
        <path id="Path_70" data-name="Path 70" d="M1.03,3.257l.083-19L-4.981,2.265a22.85,22.85,0,0,1,6.011.992" transform="translate(4.981 15.745)" fill="#ca1"/>
      </g>
      <g id="Group_72" data-name="Group 72" transform="translate(73.73 28.856)">
        <path id="Path_71" data-name="Path 71" d="M.918,3.077l6.25-17.95L-4.439.176a22.946,22.946,0,0,1,5.357,2.9" transform="translate(4.439 14.873)" fill="#ca1"/>
      </g>
      <g id="Group_73" data-name="Group 73" transform="translate(25.436 67.95)">
        <path id="Path_72" data-name="Path 72" d="M2.978,0-14.393,7.53,4.454,5.885A22.917,22.917,0,0,1,2.978,0" transform="translate(14.393)" fill="#ca1"/>
      </g>
      <g id="Group_74" data-name="Group 74" transform="translate(44.913 44.671)">
        <path id="Path_73" data-name="Path 73" d="M1.122,2.707H29.435a7.078,7.078,0,1,1-14.157,0,7.078,7.078,0,1,1-14.157,0M13.976,22.081A10.543,10.543,0,0,1,6.6,17.67a2.442,2.442,0,1,1,2.116-.933,8.367,8.367,0,0,0,13.039.1,2.438,2.438,0,1,1,2.21.813,10.593,10.593,0,0,1-7.6,4.453,6.27,6.27,0,0,0,3.583,4.06c2.361.841,5.149-.188,6.972-1.43A20.745,20.745,0,0,0,30.531,21.6l-.007-.013.014.006a20.7,20.7,0,1,0-30.518,0l.013-.006L.026,21.6a20.669,20.669,0,0,0,5.007,4,4.1,4.1,0,0,1,7.054,3.744l3.191,19.649,3.4-20.915c-2.183-.973-3.762-2.987-4.7-6" transform="translate(5.421 13.085)" fill="#ca1"/>
      </g>
      <g id="Group_75" data-name="Group 75" transform="translate(77.204 81.435)">
        <path id="Path_74" data-name="Path 74" d="M.226.5a12.92,12.92,0,0,1-1.318.783L12.771,14.158,3.708-2.417A23.062,23.062,0,0,1,.226.5" transform="translate(1.092 2.417)" fill="#ca1"/>
      </g>
      <g id="Group_76" data-name="Group 76" transform="translate(30.916 75.222)">
        <path id="Path_75" data-name="Path 75" d="M2.4,0-11.578,12.751,5.7,5.082A23.08,23.08,0,0,1,2.4,0" transform="translate(11.578)" fill="#ca1"/>
      </g>
      <g id="Group_77" data-name="Group 77" transform="translate(86.946 67.95)">
        <path id="Path_76" data-name="Path 76" d="M0,1.009,18.842,2.653,1.471-4.876A22.9,22.9,0,0,1,0,1.009" transform="translate(0 4.876)" fill="#ca1"/>
      </g>
      <g id="Group_78" data-name="Group 78" transform="translate(69.091 85.738)">
        <path id="Path_77" data-name="Path 77" d="M.517.126A7.681,7.681,0,0,1-2.065-.3c-.147-.053-.291-.11-.433-.171L7.481,18.157,4.264-.609A10.653,10.653,0,0,1,.517.126" transform="translate(2.498 0.609)" fill="#ca1"/>
      </g>
      <g id="Group_79" data-name="Group 79" transform="translate(83.038 75.227)">
        <path id="Path_78" data-name="Path 78" d="M0,.871,17.269,8.536,3.3-4.21A22.962,22.962,0,0,1,0,.871" transform="translate(0 4.21)" fill="#ca1"/>
      </g>
      <g id="Group_80" data-name="Group 80" transform="translate(40.156 81.43)">
        <path id="Path_79" data-name="Path 79" d="M1.554,0-7.513,16.58,6.323,3.732A22.907,22.907,0,0,1,1.554,0" transform="translate(7.513)" fill="#ca1"/>
      </g>
      <g id="Group_81" data-name="Group 81" transform="translate(52.154 88.23)">
        <path id="Path_80" data-name="Path 80" d="M1.078.336a4.111,4.111,0,0,1-3.5-1.961L-5.21,14.649,2.617.034a4.08,4.08,0,0,1-1.539.3" transform="translate(5.21 1.625)" fill="#ca1"/>
      </g>
      <g id="Group_82" data-name="Group 82" transform="translate(56.584 84.22)">
        <path id="Path_81" data-name="Path 81" d="M.637.319A1.861,1.861,0,0,0-1.221-1.54,1.861,1.861,0,0,0-3.08.319,1.861,1.861,0,0,0-1.221,2.177,1.861,1.861,0,0,0,.637.319" transform="translate(3.08 1.54)" fill="#ca1"/>
      </g>
      <g id="Group_83" data-name="Group 83" transform="translate(51.455 60.463)">
        <path id="Path_82" data-name="Path 82" d="M1.213,1.213A7.079,7.079,0,0,0,8.292-5.865H-5.865A7.079,7.079,0,0,0,1.213,1.213" transform="translate(5.865 5.865)" fill="#1c517f"/>
      </g>
      <g id="Group_84" data-name="Group 84" transform="translate(65.612 60.463)">
        <path id="Path_83" data-name="Path 83" d="M1.213,1.213A7.079,7.079,0,0,0,8.292-5.865H-5.865A7.079,7.079,0,0,0,1.213,1.213" transform="translate(5.865 5.865)" fill="#1c517f"/>
      </g>
      <g id="Group_85" data-name="Group 85" transform="translate(42.659 42.417)">
        <path id="Path_84" data-name="Path 84" d="M3.024,7.484A1.859,1.859,0,1,1,1.166,5.626,1.861,1.861,0,0,1,3.024,7.484M8.336-36.177A22.98,22.98,0,0,0-14.618-13.223,23,23,0,0,0-2.886,6.8,4.124,4.124,0,1,0-1.91,4.763,20.735,20.735,0,0,1-12.364-13.223a20.723,20.723,0,0,1,20.7-20.7,20.723,20.723,0,0,1,20.7,20.7A20.7,20.7,0,0,1,19.975,3.9C18.153,5.137,15.363,6.165,13,5.325A6.274,6.274,0,0,1,9.42,1.265a10.586,10.586,0,0,0,7.6-4.455A2.441,2.441,0,0,0,19.1-5.6a2.441,2.441,0,0,0-2.439-2.439A2.442,2.442,0,0,0,14.217-5.6,2.428,2.428,0,0,0,14.814-4,8.345,8.345,0,0,1,8.336-.928,8.318,8.318,0,0,1,1.775-4.1a2.423,2.423,0,0,0,.518-1.5A2.442,2.442,0,0,0-.146-8.036,2.441,2.441,0,0,0-2.585-5.6,2.441,2.441,0,0,0-.341-3.168,10.546,10.546,0,0,0,7.032,1.244c1.01,3.242,2.763,5.331,5.215,6.206a7.681,7.681,0,0,0,2.582.43,11.891,11.891,0,0,0,6.416-2.12A22.958,22.958,0,0,0,31.288-13.223,22.979,22.979,0,0,0,8.336-36.177" transform="translate(14.618 36.177)" fill="#fff"/>
      </g>
      <g id="Group_86" data-name="Group 86" transform="translate(7.443 92.781)">
        <path id="Path_85" data-name="Path 85" d="M2.394.614-1.912,4.1l3.4,4.21a2.427,2.427,0,0,0,1.106.8A2.587,2.587,0,0,0,3.948,9.2,2.882,2.882,0,0,0,5.255,8.58a3.127,3.127,0,0,0,.921-1.155A2.551,2.551,0,0,0,6.4,6.141a2.217,2.217,0,0,0-.509-1.2ZM-.366,14.052a3.156,3.156,0,0,0,.9-1.157A2.776,2.776,0,0,0,.79,11.523a2.3,2.3,0,0,0-.536-1.291L-3.6,5.466-8.064,9.081l3.741,4.626a2.526,2.526,0,0,0,1.19.844,3,3,0,0,0,1.422.113,2.8,2.8,0,0,0,1.344-.612M.954,16.5a4.163,4.163,0,0,1-2.4.991,4.923,4.923,0,0,1-2.5-.537,6.548,6.548,0,0,1-2.181-1.784l-5.442-6.731L2.517-2.969,8.329,4.219a3.663,3.663,0,0,1,.863,2.143,4.447,4.447,0,0,1-.45,2.2,5.142,5.142,0,0,1-1.4,1.778A4.962,4.962,0,0,1,5,11.386a4.025,4.025,0,0,1-2.569-.416,4.584,4.584,0,0,1,.24,2.976A4.8,4.8,0,0,1,.954,16.5" transform="translate(11.571 2.969)" fill="#1c517f"/>
      </g>
      <path id="Path_87" data-name="Path 87" d="M1.977,3.43.6,5.394-9.557-1.746.874-16.58l9.965,7.008L9.459-7.608l-7.751-5.45L-1.378-8.671,5.349-3.94,4.057-2.1-2.671-6.833l-3.291,4.68Z" transform="translate(30.62 120.975)" fill="#1c517f"/>
      <path id="Path_88" data-name="Path 88" d="M0,2.918,6.254-14.1,8.8-13.17,3.37,1.6,12.6,4.99l-.828,2.253Z" transform="translate(36.583 126.065)" fill="#1c517f"/>
      <path id="Path_89" data-name="Path 89" d="M0,3.094,1.725-14.957,4.42-14.7,2.923.962l9.789.935-.228,2.391Z" transform="translate(53.553 131.161)" fill="#1c517f"/>
      <path id="Path_90" data-name="Path 90" d="M1.714,1.818-2.63-5.63l-1.516,8.5ZM-4.414-8.346l2.464-.441L8.285,7.8l-2.79.5L2.8,3.674-4.525,4.985l-.941,5.28-2.817.5Z" transform="translate(77.94 124.71)" fill="#1c517f"/>
      <path id="Path_91" data-name="Path 91" d="M1.661,2.875-8.031-12.451-5.743-13.9,2.667-.6l8.311-5.256L12.26-3.828Z" transform="translate(96.491 124.375)" fill="#1c517f"/>
      <g id="Group_93" data-name="Group 93" transform="translate(107.366 93.121)">
        <path id="Path_92" data-name="Path 92" d="M2.8,1.777A1.859,1.859,0,1,1,.938-.082,1.861,1.861,0,0,1,2.8,1.777M-3.678.261l-9.841-6.649,1.487-2.2L-2.191-1.94Z" transform="translate(13.519 8.589)" fill="#1c517f"/>
      </g>
      <path id="Path_94" data-name="Path 94" d="M3.362,3.182-8.989-10.1l1.982-1.844L5.345,1.338ZM-16.252-12.771l2.8-2.608,4.444,1.515-1.331,2.337Z" transform="translate(108.593 114.217)" fill="#1c517f"/>
      <path id="Path_95" data-name="Path 95" d="M1.967,1.305-9.294,3.471l-.214-1.11L.77.384l-1.252-6.5L.5-6.308Z" transform="translate(11.099 77.785)" fill="#ca1"/>
      <path id="Path_96" data-name="Path 96" d="M1.206.5-4.5,2.673,1.133,5.03Zm-7.037,2.62.016-.952L5.729-2.412l-.019,1.2L2.1.157,2.015,5.4,5.578,6.891,5.558,8.1Z" transform="translate(5.831 62.182)" fill="#ca1"/>
      <g id="Group_98" data-name="Group 98" transform="translate(3.164 41.034)">
        <path id="Path_97" data-name="Path 97" d="M.686,1.748a6.012,6.012,0,0,1-1.838-1A6.061,6.061,0,0,1-2.565-.834a5.089,5.089,0,0,1-.714-2.043,5.239,5.239,0,0,1,.262-2.347,4.741,4.741,0,0,1,1.5-2.268A4.306,4.306,0,0,1,.7-8.447l.24,1.016A3.381,3.381,0,0,0-.5-6.923a3.655,3.655,0,0,0-.986.94,4.339,4.339,0,0,0-.585,1.142A3.9,3.9,0,0,0-2.258-2.98a4.068,4.068,0,0,0,.62,1.611A4.891,4.891,0,0,0-.44-.109,5.532,5.532,0,0,0,1.105.7a5.221,5.221,0,0,0,1.833.27A4.952,4.952,0,0,0,4.688.595,4.43,4.43,0,0,0,6.131-.362a3.72,3.72,0,0,0,.915-1.492,4.175,4.175,0,0,0,.2-1.328A4.111,4.111,0,0,0,6.991-4.6,3.362,3.362,0,0,0,6.14-5.884L6.9-6.62a3.647,3.647,0,0,1,1.032,1.5,5.335,5.335,0,0,1,.334,1.857,5.569,5.569,0,0,1-.273,1.79A4.652,4.652,0,0,1,6.823.421,5.535,5.535,0,0,1,5,1.609a6.254,6.254,0,0,1-2.158.448A6.191,6.191,0,0,1,.686,1.748" transform="translate(3.318 8.447)" fill="#ca1"/>
      </g>
      <g id="Group_99" data-name="Group 99" transform="translate(7.13 27.203)">
        <path id="Path_98" data-name="Path 98" d="M2.12,1.741a4.943,4.943,0,0,1-1.612,1.7,3.914,3.914,0,0,1-1.885.587,5.653,5.653,0,0,1-1.994-.285,9.061,9.061,0,0,1-1.949-.9L-10.249-.181l.583-.95,4.929,3.023a8.1,8.1,0,0,0,1.585.753,4.821,4.821,0,0,0,1.624.286,3.031,3.031,0,0,0,1.506-.4A3.6,3.6,0,0,0,1.244,1.222a3.622,3.622,0,0,0,.6-1.763A3.1,3.1,0,0,0,1.5-2.075a4.817,4.817,0,0,0-.993-1.3A8.4,8.4,0,0,0-.862-4.428L-5.791-7.45l.591-.964L-.27-5.391A9.158,9.158,0,0,1,1.467-4.022,5.234,5.234,0,0,1,2.6-2.351,4.105,4.105,0,0,1,2.894-.418,4.911,4.911,0,0,1,2.12,1.741" transform="translate(10.249 8.414)" fill="#ca1"/>
      </g>
      <path id="Path_100" data-name="Path 100" d="M1.422,1.5l-8.294-7.92.781-.818L1.478-.012,6.051-4.8l.724.692Z" transform="translate(22.769 29.072)" fill="#ca1"/>
      <path id="Path_101" data-name="Path 101" d="M1.4.14-1.932,2.506l6.06,8.534-.922.654L-2.853,3.16-6.185,5.526l-.581-.817L.82-.677Z" transform="translate(30.638 10.044)" fill="#ca1"/>
      <g id="Group_103" data-name="Group 103" transform="translate(35.63 3.254)">
        <path id="Path_102" data-name="Path 102" d="M1.534,2.146a4.963,4.963,0,0,1-2.3.448,3.926,3.926,0,0,1-1.875-.619A5.693,5.693,0,0,1-4.1.583,9.049,9.049,0,0,1-5.161-1.284L-7.413-6.609l1.026-.434,2.253,5.326a8.25,8.25,0,0,0,.85,1.534A4.811,4.811,0,0,0-2.128.993a3.043,3.043,0,0,0,1.459.549,3.611,3.611,0,0,0,1.791-.327A3.624,3.624,0,0,0,2.636.128a3.106,3.106,0,0,0,.617-1.445A4.839,4.839,0,0,0,3.2-2.952a8.332,8.332,0,0,0-.507-1.653L.441-9.931l1.042-.441L3.735-5.046a9.178,9.178,0,0,1,.618,2.123A5.232,5.232,0,0,1,4.3-.9,4.107,4.107,0,0,1,3.419.84,4.915,4.915,0,0,1,1.534,2.146" transform="translate(7.413 10.372)" fill="#ca1"/>
      </g>
      <g id="Group_104" data-name="Group 104" transform="translate(50.286 0.765)">
        <path id="Path_103" data-name="Path 103" d="M.378,1.173,4.067.517a1.927,1.927,0,0,0,1.1-.573,2.452,2.452,0,0,0,.593-1.1A3.079,3.079,0,0,0,5.8-2.465a2.669,2.669,0,0,0-.535-1.209,2.66,2.66,0,0,0-.993-.792,2.005,2.005,0,0,0-1.217-.152L-.538-3.98Zm-.2,5.35L-1.827-4.768l4.771-.848a3,3,0,0,1,1.39.065,3.523,3.523,0,0,1,1.2.631,3.926,3.926,0,0,1,.9,1.02,3.526,3.526,0,0,1,.474,1.237,3.868,3.868,0,0,1-.039,1.581A3.4,3.4,0,0,1,6.216.282,2.9,2.9,0,0,1,5,1.17L8.546,5.036,7.29,5.259l-3.4-3.694L.553,2.159l.741,4.166Z" transform="translate(1.827 5.668)" fill="#ca1"/>
      </g>
      <path id="Path_105" data-name="Path 105" d="M1.316,1.214-.755-4.529-3.213,1.06ZM-1.178-5.869l.952.033L4.147,5.787,2.952,5.746,1.641,2.115-3.6,1.936-5.152,5.471-6.363,5.43Z" transform="translate(68.589 5.869)" fill="#ca1"/>
      <g id="Group_107" data-name="Group 107" transform="translate(81.018 3.627)">
        <path id="Path_106" data-name="Path 106" d="M.062.665a6.108,6.108,0,0,1,2.66-3.187,5.079,5.079,0,0,1,2.06-.665,5.22,5.22,0,0,1,2.339.32A4.739,4.739,0,0,1,9.352-1.317a4.31,4.31,0,0,1,.9,2.239l-1.022.216A3.4,3.4,0,0,0,8.759-.312a3.672,3.672,0,0,0-.916-1.009,4.354,4.354,0,0,0-1.127-.612,3.887,3.887,0,0,0-1.856-.232,4.075,4.075,0,0,0-1.627.581A4.934,4.934,0,0,0,1.945-.417,5.607,5.607,0,0,0,1.1,1.109,5.24,5.24,0,0,0,.788,2.935a4.962,4.962,0,0,0,.328,1.758,4.415,4.415,0,0,0,.922,1.465,3.73,3.73,0,0,0,1.469.951,4.192,4.192,0,0,0,1.323.237,4.138,4.138,0,0,0,1.428-.223,3.383,3.383,0,0,0,1.3-.819l.717.774a3.622,3.622,0,0,1-1.526.994,5.3,5.3,0,0,1-1.865.29A5.571,5.571,0,0,1,3.1,8.045,4.64,4.64,0,0,1,1.239,6.832,5.537,5.537,0,0,1,.1,4.978,6.234,6.234,0,0,1-.3,2.809,6.182,6.182,0,0,1,.062.665" transform="translate(0.299 3.213)" fill="#ca1"/>
      </g>
      <path id="Path_108" data-name="Path 108" d="M2.368.839l-6.2,9.645-.937-.6,2.9-4.51L-7.592,1.692l-2.9,4.51-.951-.612,6.2-9.645.951.612L-7.05.85l5.718,3.679L1.43.235Z" transform="translate(102.503 11.983)" fill="#ca1"/>
      <path id="Path_109" data-name="Path 109" d="M1.056,2.2l-.707.708L-5.1-2.534,3-10.647,8.35-5.3,7.643-4.6,3.1-9.14.172-6.214,4.138-2.253l-.673.675L-.5-5.541l-3.093,3.1Z" transform="translate(106.522 27.364)" fill="#ca1"/>
      <g id="Group_111" data-name="Group 111" transform="translate(113.151 32.679)">
        <path id="Path_110" data-name="Path 110" d="M.564.119a6.1,6.1,0,0,1,4.113-.56,5.074,5.074,0,0,1,1.971.9A5.237,5.237,0,0,1,8.16,2.271a4.748,4.748,0,0,1,.6,2.649,4.3,4.3,0,0,1-.845,2.262l-.9-.53a3.406,3.406,0,0,0,.628-1.39,3.689,3.689,0,0,0,0-1.361A4.371,4.371,0,0,0,7.23,2.688,3.9,3.9,0,0,0,6.014,1.265,4.062,4.062,0,0,0,4.421.6,4.888,4.888,0,0,0,2.683.591a5.53,5.53,0,0,0-1.65.559A5.222,5.222,0,0,0-.43,2.286a4.971,4.971,0,0,0-.944,1.519,4.424,4.424,0,0,0-.307,1.7A3.716,3.716,0,0,0-1.237,7.2,4.216,4.216,0,0,0,.785,9.066,3.386,3.386,0,0,0,2.3,9.339l.008,1.054a3.626,3.626,0,0,1-1.8-.294A5.312,5.312,0,0,1-1.064,9.055a5.569,5.569,0,0,1-1.1-1.436,4.641,4.641,0,0,1-.559-2.152,5.535,5.535,0,0,1,.407-2.14A6.2,6.2,0,0,1-1.149,1.46,6.178,6.178,0,0,1,.564.119" transform="translate(2.726 0.578)" fill="#ca1"/>
      </g>
      <g id="Group_112" data-name="Group 112" transform="translate(117.71 44.265)">
        <path id="Path_111" data-name="Path 111" d="M.035,1.3A4.943,4.943,0,0,1-.077-1.039,3.927,3.927,0,0,1,.8-2.806,5.658,5.658,0,0,1,2.391-4.048a9.055,9.055,0,0,1,2-.782L9.984-6.3l.282,1.079L4.672-3.752a8.234,8.234,0,0,0-1.64.622A4.838,4.838,0,0,0,1.7-2.155,3.041,3.041,0,0,0,.949-.789,3.615,3.615,0,0,0,1.015,1.03a3.625,3.625,0,0,0,.859,1.653A3.1,3.1,0,0,0,3.215,3.5a4.846,4.846,0,0,0,1.626.185A8.392,8.392,0,0,0,6.55,3.42l5.594-1.465.287,1.093L6.837,4.514a9.2,9.2,0,0,1-2.19.307,5.244,5.244,0,0,1-1.993-.338,4.122,4.122,0,0,1-1.6-1.126A4.912,4.912,0,0,1,.035,1.3" transform="translate(0.17 6.295)" fill="#ca1"/>
      </g>
      <g id="Group_113" data-name="Group 113" transform="translate(119.596 59.541)">
        <path id="Path_112" data-name="Path 112" d="M.9.229l.124,3.745a1.933,1.933,0,0,0,.41,1.167,2.465,2.465,0,0,0,1,.742,3.069,3.069,0,0,0,1.293.231,2.717,2.717,0,0,0,2.2-1.227A2.012,2.012,0,0,0,6.254,3.7L6.134.055ZM-4.365-.727,7.1-1.108l.161,4.843A2.974,2.974,0,0,1,7,5.1a3.471,3.471,0,0,1-.8,1.1,3.93,3.93,0,0,1-1.138.749,3.527,3.527,0,0,1-1.291.293A3.872,3.872,0,0,1,2.21,6.982,3.413,3.413,0,0,1,.954,6.135,2.911,2.911,0,0,1,.248,4.808l-4.33,2.957-.042-1.276L.015,3.652-.1.263-4.326.4Z" transform="translate(4.365 1.108)" fill="#ca1"/>
      </g>
      <path id="Path_114" data-name="Path 114" d="M.845,1.406,6.824.17,1.64-3.055ZM8.209-.06,8.043.879-4.083,3.557l.209-1.177L-.092,1.6l.92-5.161L-2.451-5.6l.212-1.192Z" transform="translate(122.075 76.761)" fill="#ca1"/>
    </g>
  </g>
</svg>
