<svg xmlns="http://www.w3.org/2000/svg" width="952.678" height="949.425" viewBox="0 0 952.678 949.425">
  <path id="Path_61" data-name="Path 61" d="M308.976,150.79,230.305-81.678l1.073,245.415L81.488-30.587l80.7,231.768L-42.678,66.054,108.906,259.061l-237.642-61.283L77.3,331.108-167.362,350.3,70.807,409.511l-225.176,97.6,244.49-21.335L-91.165,651.2l224.314-99.567L15.4,766.962,195.232,599.956,153.781,841.85,269.642,625.5l39.334,242.245L348.312,625.5,464.174,841.85,422.719,599.956,602.554,766.962,484.805,551.634,709.119,651.2,527.833,485.776l244.487,21.335-225.173-97.6L785.316,350.3,540.65,331.108,746.691,197.777,509.046,259.061,660.632,66.054,455.766,201.181l80.7-231.768L386.576,163.737l1.073-245.415Z" transform="translate(167.362 81.678)" fill="#fff"/>
</svg>
