<svg xmlns="http://www.w3.org/2000/svg" width="78.538" height="78.27" viewBox="0 0 78.538 78.27">
  <g id="Group_283" data-name="Group 283" transform="translate(566.793 -1247.448)">
    <path id="Path_62" data-name="Path 62" d="M.067.607c0,.344-.01.686-.026,1.027L17.513-2.709-.454-4.118A21.818,21.818,0,0,1,.067.607" transform="translate(-505.768 1285.769)" fill="#ca1"/>
    <path id="Path_63" data-name="Path 63" d="M1.938,1.278l-15.08-9.947L-1.99,5.532A21.978,21.978,0,0,1,1.938,1.278" transform="translate(-543.371 1268.296)" fill="#ca1"/>
    <path id="Path_64" data-name="Path 64" d="M.745,2.2-5.05-14.922l.079,18.066A21.717,21.717,0,0,1,.745,2.2" transform="translate(-528.96 1262.371)" fill="#ca1"/>
    <path id="Path_65" data-name="Path 65" d="M2.246.579-15.229-3.927-.094,5.867A21.7,21.7,0,0,1,2.246.579" transform="translate(-548.38 1274.414)" fill="#ca1"/>
    <path id="Path_66" data-name="Path 66" d="M2.242.607a21.818,21.818,0,0,1,.521-4.725L-15.2-2.709,2.269,1.634C2.253,1.293,2.242.951,2.242.607" transform="translate(-551.589 1285.769)" fill="#ca1"/>
    <path id="Path_67" data-name="Path 67" d="M1.418,1.839-9.617-12.469-3.675,4.6A21.774,21.774,0,0,1,1.418,1.839" transform="translate(-536.66 1264.129)" fill="#ca1"/>
    <path id="Path_68" data-name="Path 68" d="M.3,1.259,15.436-8.535-2.039-4.029A21.7,21.7,0,0,1,.3,1.259" transform="translate(-506.875 1279.022)" fill="#ca1"/>
    <path id="Path_69" data-name="Path 69" d="M.5,1.825l11.152-14.2L-3.423-2.429A22.014,22.014,0,0,1,.5,1.825" transform="translate(-510.191 1272.003)" fill="#ca1"/>
    <path id="Path_70" data-name="Path 70" d="M.734,2.322.814-15.745-4.981,1.379a21.725,21.725,0,0,1,5.715.943" transform="translate(-521.852 1263.193)" fill="#ca1"/>
    <path id="Path_71" data-name="Path 71" d="M.655,2.193,6.6-14.873-4.439-.565A21.816,21.816,0,0,1,.655,2.193" transform="translate(-515.367 1266.533)" fill="#ca1"/>
    <path id="Path_72" data-name="Path 72" d="M2.122,0-14.393,7.159,3.526,5.6A21.789,21.789,0,0,1,2.122,0" transform="translate(-551.328 1288.829)" fill="#ca1"/>
    <path id="Path_73" data-name="Path 73" d="M.8,1.929H27.719a6.73,6.73,0,1,1-13.46,0,6.73,6.73,0,0,1-13.46,0M13.021,20.35a10.024,10.024,0,0,1-7.01-4.194,2.322,2.322,0,1,1,2.011-.887,7.955,7.955,0,0,0,12.4.094,2.318,2.318,0,1,1,2.1.773,10.071,10.071,0,0,1-7.23,4.234A5.961,5.961,0,0,0,18.7,24.23c2.244.8,4.9-.179,6.629-1.36a19.723,19.723,0,0,0,3.434-2.981l-.007-.013.014.006a19.681,19.681,0,1,0-29.016,0l.013-.006-.007.013A19.651,19.651,0,0,0,4.518,23.7a3.9,3.9,0,0,1,6.707,3.559l3.034,18.682,3.229-19.885c-2.076-.925-3.577-2.84-4.467-5.7" transform="translate(-541.783 1279.781)" fill="#ca1"/>
    <path id="Path_74" data-name="Path 74" d="M.161.356A12.284,12.284,0,0,1-1.092,1.1L12.089,13.342,3.471-2.417A21.927,21.927,0,0,1,.161.356" transform="translate(-515.411 1304.067)" fill="#ca1"/>
    <path id="Path_75" data-name="Path 75" d="M1.707,0-11.578,12.123,4.848,4.832A21.944,21.944,0,0,1,1.707,0" transform="translate(-548.934 1295.743)" fill="#ca1"/>
    <path id="Path_76" data-name="Path 76" d="M0,.719,17.914,2.282,1.4-4.876A21.77,21.77,0,0,1,0,.719" transform="translate(-507.24 1293.705)" fill="#ca1"/>
    <path id="Path_77" data-name="Path 77" d="M.368.09A7.3,7.3,0,0,1-2.086-.319c-.14-.05-.277-.1-.412-.163L6.989,17.233,3.931-.609A10.128,10.128,0,0,1,.368.09" transform="translate(-521.719 1306.35)" fill="#ca1"/>
    <path id="Path_78" data-name="Path 78" d="M0,.621,16.419,7.908,3.139-4.21A21.831,21.831,0,0,1,0,.621" transform="translate(-510.956 1299.958)" fill="#ca1"/>
    <path id="Path_79" data-name="Path 79" d="M1.108,0-7.513,15.764,5.641,3.548A21.779,21.779,0,0,1,1.108,0" transform="translate(-544.214 1301.646)" fill="#ca1"/>
    <path id="Path_80" data-name="Path 80" d="M.768.24A3.909,3.909,0,0,1-2.558-1.625L-5.21,13.847,2.231-.047A3.879,3.879,0,0,1,.768.24" transform="translate(-535.109 1309.736)" fill="#ca1"/>
    <path id="Path_81" data-name="Path 81" d="M.454.227A1.769,1.769,0,0,0-1.313-1.54,1.769,1.769,0,0,0-3.08.227,1.769,1.769,0,0,0-1.313,1.994,1.769,1.769,0,0,0,.454.227" transform="translate(-533.028 1305.838)" fill="#ca1"/>
    <path id="Path_82" data-name="Path 82" d="M.865.865a6.73,6.73,0,0,0,6.73-6.73H-5.865A6.73,6.73,0,0,0,.865.865" transform="translate(-535.119 1287.576)" fill="#1c517f"/>
    <path id="Path_83" data-name="Path 83" d="M.865.865a6.73,6.73,0,0,0,6.73-6.73H-5.865A6.73,6.73,0,0,0,.865.865" transform="translate(-521.659 1287.576)" fill="#1c517f"/>
    <path id="Path_84" data-name="Path 84" d="M2.156,5.335A1.769,1.769,0,0,1,.388,7.1a1.767,1.767,0,1,1,0-3.534A1.769,1.769,0,0,1,2.156,5.335m5.05-41.512A21.848,21.848,0,0,0-14.618-14.354,21.866,21.866,0,0,0-3.464,4.685a3.905,3.905,0,0,0-.059.649A3.915,3.915,0,0,0,.388,9.245a3.911,3.911,0,0,0,0-7.821A3.9,3.9,0,0,0-2.535,2.747a19.714,19.714,0,0,1-9.939-17.1,19.7,19.7,0,0,1,19.68-19.68,19.7,19.7,0,0,1,19.679,19.68A19.685,19.685,0,0,1,18.272,1.922C16.539,3.1,13.887,4.08,11.644,3.282A5.965,5.965,0,0,1,8.236-.578a10.064,10.064,0,0,0,7.23-4.235A2.32,2.32,0,0,0,17.435-7.1a2.321,2.321,0,0,0-2.319-2.319A2.321,2.321,0,0,0,12.8-7.1a2.308,2.308,0,0,0,.568,1.516,7.934,7.934,0,0,1-6.16,2.924A7.909,7.909,0,0,1,.968-5.68,2.3,2.3,0,0,0,1.46-7.1,2.321,2.321,0,0,0-.859-9.422,2.321,2.321,0,0,0-3.178-7.1a2.321,2.321,0,0,0,2.134,2.31A10.026,10.026,0,0,0,5.966-.6c.96,3.082,2.627,5.068,4.958,5.9a7.3,7.3,0,0,0,2.454.408,11.306,11.306,0,0,0,6.1-2.016,21.828,21.828,0,0,0,9.549-18.047A21.847,21.847,0,0,0,7.205-36.177" transform="translate(-534.729 1300.73)" fill="#fff"/>
  </g>
</svg>
